<svg width="516" height="551" viewBox="0 0 516 551" fill="none" xmlns="http://www.w3.org/2000/svg">
<mask id="mask0_11_7" style="mask-type:luminance" maskUnits="userSpaceOnUse" x="258" y="248" width="98" height="36">
<path d="M320.439 256.162L258.889 271.132C280.93 291.746 326.999 283.19 355.713 270.396C353.795 263.184 352.496 255.882 351.726 248.553L320.439 256.162Z" fill="white"/>
</mask>
<g mask="url(#mask0_11_7)">
<path d="M355.713 248.553H258.889V291.746H355.713V248.553Z" fill="white"/>
</g>
<path fill-rule="evenodd" clip-rule="evenodd" d="M320.438 256.162L258.889 271.132C258.889 271.132 311.371 279.744 352.658 255.757C352.289 253.361 351.979 250.958 351.726 248.553L320.438 256.162Z" fill="black"/>
<mask id="mask1_11_7" style="mask-type:luminance" maskUnits="userSpaceOnUse" x="222" y="229" width="131" height="36">
<path d="M299.534 233.561L222.024 239.471C247.597 272.673 317.848 266.749 352.98 253.538C351.593 245.623 350.839 237.636 350.623 229.666L299.534 233.561Z" fill="white"/>
</mask>
<g mask="url(#mask1_11_7)">
<path d="M352.98 229.666H222.024V272.673H352.98V229.666Z" fill="white"/>
</g>
<mask id="mask2_11_7" style="mask-type:luminance" maskUnits="userSpaceOnUse" x="176" y="187" width="176" height="53">
<path d="M275.291 198.702L176.977 187.753C203.644 240.338 309.907 246.053 350.759 233.175C350.35 224.462 350.588 215.756 351.336 207.17L275.291 198.702Z" fill="white"/>
</mask>
<g mask="url(#mask2_11_7)">
<path d="M351.336 187.753H176.977V246.053H351.336V187.753Z" fill="white"/>
</g>
<mask id="mask3_11_7" style="mask-type:luminance" maskUnits="userSpaceOnUse" x="158" y="120" width="196" height="94">
<path d="M265.777 156.757L158.204 120.827C176.606 190.595 309.505 222.319 350.964 212.123C351.4 205.253 352.171 198.447 353.211 191.763L351.303 185.323L265.777 156.757Z" fill="white"/>
</mask>
<g mask="url(#mask3_11_7)">
<path d="M353.211 120.827H158.204V222.319H353.211V120.827Z" fill="white"/>
</g>
<mask id="mask4_11_7" style="mask-type:luminance" maskUnits="userSpaceOnUse" x="181" y="59" width="176" height="132">
<path d="M278.679 118.345L181.52 59.8397C184.36 134.107 314.558 195.449 353.377 190.69C354.27 185.106 355.353 179.619 356.567 174.248L355.926 164.859L278.679 118.345Z" fill="white"/>
</mask>
<g mask="url(#mask4_11_7)">
<path d="M356.567 59.8397H181.52V195.449H356.567V59.8397Z" fill="white"/>
</g>
<mask id="mask5_11_7" style="mask-type:luminance" maskUnits="userSpaceOnUse" x="221" y="20" width="143" height="153">
<path d="M301.276 92.2061L222.133 20.7769C211.44 89.6781 320.111 169.48 356.994 172.355C358.935 164.043 361.201 156.045 363.625 148.477L301.276 92.2061Z" fill="white"/>
</mask>
<g mask="url(#mask5_11_7)">
<path d="M363.624 20.7773H211.439V172.356H363.624V20.7773Z" fill="white"/>
</g>
<mask id="mask6_11_7" style="mask-type:luminance" maskUnits="userSpaceOnUse" x="268" y="0" width="103" height="154">
<path d="M329.729 75.5364L272.268 0C252.233 56.5983 328.214 140.53 361.981 153.745C364.639 144.941 367.55 136.668 370.48 129.105L329.729 75.5364Z" fill="white"/>
</mask>
<g mask="url(#mask6_11_7)">
<path d="M370.48 0H252.232V153.745H370.48V0Z" fill="white"/>
</g>
<mask id="mask7_11_7" style="mask-type:luminance" maskUnits="userSpaceOnUse" x="314" y="55" width="87" height="285">
<path d="M366.09 254.728C358.816 223.773 357.865 183.46 375.414 135.591L314.5 55.5179C314.5 55.5179 320.139 106.343 342.225 141.39C342.225 141.39 313.006 203.174 327.904 265.557C334.092 291.471 347.893 317.488 374.562 339.222C383.452 335.833 392.132 331.155 400.505 324.842C400.505 324.842 376.643 299.634 366.09 254.728Z" fill="white"/>
</mask>
<g mask="url(#mask7_11_7)">
<path d="M400.505 55.5183H313.006V339.223H400.505V55.5183Z" fill="url(#paint0_linear_11_7)"/>
</g>
<path fill-rule="evenodd" clip-rule="evenodd" d="M366.09 254.728C358.816 223.773 357.865 183.46 375.414 135.591L314.5 55.5179C314.5 55.5179 343.941 99.9111 366.028 134.957C366.028 134.957 336.808 196.742 351.706 259.125C357.563 283.651 370.241 308.268 394.191 329.261C396.313 327.886 398.419 326.415 400.504 324.842C400.504 324.842 376.643 299.634 366.09 254.728Z" fill="black"/>
<path fill-rule="evenodd" clip-rule="evenodd" d="M222.132 20.7769C222.132 20.7769 257.271 104.569 340.058 146.433C341.106 143.852 341.853 142.199 342.119 141.621C324.637 128.063 304.15 105.945 289.309 81.4048L222.132 20.7769Z" fill="black"/>
<path fill-rule="evenodd" clip-rule="evenodd" d="M333.544 164.956C309.864 153.849 278.886 131.379 255.489 104.381L181.52 59.8397C181.52 59.8397 255.31 146.429 330.565 175.634C331.536 171.816 332.545 168.244 333.544 164.956Z" fill="black"/>
<path fill-rule="evenodd" clip-rule="evenodd" d="M158.204 120.827C158.204 120.827 240.677 183.384 326.208 196.764C326.686 193.728 327.216 190.774 327.784 187.911C304.841 182.247 274.541 168.966 247.467 150.642L158.204 120.827Z" fill="black"/>
<path fill-rule="evenodd" clip-rule="evenodd" d="M176.977 187.753C176.977 187.753 231.671 227.268 323.848 220.022C323.939 217.92 324.064 215.838 324.219 213.781C301.045 212.584 270.711 206.273 242.197 195.017L176.977 187.753Z" fill="black"/>
<path fill-rule="evenodd" clip-rule="evenodd" d="M222.024 239.47C222.024 239.47 273.789 254.145 324.731 247.339C324.38 244.236 324.123 241.15 323.949 238.088C306.638 239.683 285.932 239.274 265.426 236.161L222.024 239.47Z" fill="black"/>
<mask id="mask8_11_7" style="mask-type:luminance" maskUnits="userSpaceOnUse" x="225" y="398" width="79" height="115">
<path d="M225.067 512.657C272.264 508.399 307.054 423.628 302.896 398.83C299.034 398.886 295.24 398.825 291.545 398.672L225.067 512.657Z" fill="white"/>
</mask>
<g mask="url(#mask8_11_7)">
<path d="M307.054 398.672H225.067V512.657H307.054V398.672Z" fill="url(#paint1_linear_11_7)"/>
</g>
<mask id="mask9_11_7" style="mask-type:luminance" maskUnits="userSpaceOnUse" x="250" y="394" width="57" height="149">
<path d="M268.783 462.075L250.293 542.252C300.777 523.619 313.839 420.384 301.943 394.428C298.797 395.326 295.674 396.142 292.589 396.883L278.081 421.758L268.783 462.075Z" fill="white"/>
</mask>
<g mask="url(#mask9_11_7)">
<path d="M313.839 394.428H250.293V542.252H313.839V394.428Z" fill="url(#paint2_linear_11_7)"/>
</g>
<mask id="mask10_11_7" style="mask-type:luminance" maskUnits="userSpaceOnUse" x="282" y="389" width="35" height="162">
<path d="M283.84 465.828L285.678 550.445C331.304 519.101 318.223 412.867 299.798 389.994C298.21 390.917 296.621 391.815 295.036 392.687L282.711 413.819L283.84 465.828Z" fill="white"/>
</mask>
<g mask="url(#mask10_11_7)">
<path d="M331.305 389.994H282.712V550.445H331.305V389.994Z" fill="url(#paint3_linear_11_7)"/>
</g>
<mask id="mask11_11_7" style="mask-type:luminance" maskUnits="userSpaceOnUse" x="287" y="386" width="49" height="150">
<path d="M301.16 459.007L320.812 535.97C355.863 497.625 321.342 403.289 299.641 386.293C299.005 386.892 298.367 387.484 297.729 388.07L287.517 405.579L301.16 459.007Z" fill="white"/>
</mask>
<g mask="url(#mask11_11_7)">
<path d="M355.863 386.293H287.517V535.97H355.863V386.293Z" fill="url(#paint4_linear_11_7)"/>
</g>
<mask id="mask12_11_7" style="mask-type:luminance" maskUnits="userSpaceOnUse" x="289" y="383" width="57" height="121">
<path d="M309.531 443.381L339.808 503.399C361.781 465.319 316.048 393.655 295.015 383.568L294.645 384.108C296.529 386.384 297.73 388.07 297.73 388.07L289.096 402.874L309.531 443.381Z" fill="white"/>
</mask>
<g mask="url(#mask12_11_7)">
<path d="M361.781 383.568H289.096V503.399H361.781V383.568Z" fill="url(#paint5_linear_11_7)"/>
</g>
<mask id="mask13_11_7" style="mask-type:luminance" maskUnits="userSpaceOnUse" x="107" y="221" width="212" height="140">
<path d="M213.952 279.601L107.158 354.585C179.431 383.317 289.519 296.218 318.682 247.822C310.674 239.562 303.31 230.743 296.556 221.599L213.952 279.601Z" fill="white"/>
</mask>
<g mask="url(#mask13_11_7)">
<path d="M318.682 221.599H107.158V383.317H318.682V221.599Z" fill="white"/>
</g>
<mask id="mask14_11_7" style="mask-type:luminance" maskUnits="userSpaceOnUse" x="0" y="175" width="285" height="85">
<path d="M147.162 197.167L0 224.109C67.634 295.082 249.948 242.108 284.186 203.519C280.198 197.218 276.479 190.845 272.992 184.472L264.164 175.747L147.162 197.167Z" fill="white"/>
</mask>
<g mask="url(#mask14_11_7)">
<path d="M284.186 175.746H0V295.082H284.186V175.746Z" fill="white"/>
</g>
<mask id="mask15_11_7" style="mask-type:luminance" maskUnits="userSpaceOnUse" x="6" y="150" width="266" height="57">
<path d="M146.697 151.592L6.07324 150.026C55.6379 227.506 232.773 211.579 271.762 182.23C266.426 172.314 261.685 162.426 257.478 152.825L146.697 151.592Z" fill="white"/>
</mask>
<g mask="url(#mask15_11_7)">
<path d="M271.762 150.025H6.07324V227.506H271.762V150.025Z" fill="white"/>
</g>
<mask id="mask16_11_7" style="mask-type:luminance" maskUnits="userSpaceOnUse" x="277" y="209" width="240" height="257">
<path d="M447.896 295.066C447.896 295.066 489.106 290.729 516.001 319.792C516.001 319.792 512.096 294.632 501.686 287.257C519.632 240.532 465.185 202.617 415.7 210.779C336.63 223.824 271.811 400.78 277.413 465.979C330.553 416.806 429.102 387.017 447.896 295.066Z" fill="white"/>
</mask>
<g mask="url(#mask16_11_7)">
<path d="M519.632 202.617H271.81V465.979H519.632V202.617Z" fill="white"/>
</g>
<path fill-rule="evenodd" clip-rule="evenodd" d="M288.406 389.652C311.544 341.013 376.464 332.424 411.563 331.476C383.994 329.249 360.155 321.097 339.666 309.506C334.619 306.651 329.774 303.586 325.127 300.351C324.865 300.169 324.603 299.985 324.341 299.802C322.877 302.538 321.44 305.303 320.03 308.094C312.977 322.057 306.625 336.631 301.105 351.187C296.181 364.172 291.918 377.143 288.406 389.652Z" fill="black"/>
<path fill-rule="evenodd" clip-rule="evenodd" d="M352.659 255.758C352.659 255.758 429.475 207.393 502.942 254.935C493.152 224.668 453.015 204.623 415.7 210.779C393.082 214.511 371.63 231.654 352.659 255.758Z" fill="black"/>
<mask id="mask17_11_7" style="mask-type:luminance" maskUnits="userSpaceOnUse" x="260" y="262" width="97" height="104">
<path d="M308.757 297.025L260.948 365.553C300.742 366.704 338.839 318.031 356.069 280.313C347.878 274.854 340.219 268.766 333.06 262.19L308.757 297.025Z" fill="white"/>
</mask>
<g mask="url(#mask17_11_7)">
<path d="M356.069 262.19H260.948V366.704H356.069V262.19Z" fill="white"/>
</g>
<path fill-rule="evenodd" clip-rule="evenodd" d="M308.757 297.025L260.948 365.553C260.948 365.553 320.373 328.263 340.271 268.502C337.813 266.453 335.41 264.347 333.06 262.19L308.757 297.025Z" fill="black"/>
<mask id="mask18_11_7" style="mask-type:luminance" maskUnits="userSpaceOnUse" x="196" y="244" width="143" height="124">
<path d="M268.356 292.917L196.854 366.417C251.128 376.932 315.437 309.754 338.654 266.025C330.372 259.405 322.657 252.166 315.486 244.471L268.356 292.917Z" fill="white"/>
</mask>
<g mask="url(#mask18_11_7)">
<path d="M338.654 244.471H196.854V376.932H338.654V244.471Z" fill="white"/>
</g>
<mask id="mask19_11_7" style="mask-type:luminance" maskUnits="userSpaceOnUse" x="30" y="200" width="271" height="122">
<path d="M167.93 246.419L30.175 304.778C109.271 357.718 268.404 273.095 300.509 226.822C294.945 219.646 289.766 212.243 284.96 204.725L277.453 200.019L167.93 246.419Z" fill="white"/>
</mask>
<g mask="url(#mask19_11_7)">
<path d="M300.508 200.019H30.1743V357.718H300.508V200.019Z" fill="white"/>
</g>
<mask id="mask20_11_7" style="mask-type:luminance" maskUnits="userSpaceOnUse" x="37" y="85" width="224" height="81">
<path d="M160.286 110.269L37.5234 85.7153C67.1086 159.183 215.518 175.873 260.45 159.469C255.394 148.441 251.052 137.718 247.347 127.681L160.286 110.269Z" fill="white"/>
</mask>
<g mask="url(#mask20_11_7)">
<path d="M260.45 85.7162H37.5234V175.873H260.45V85.7162Z" fill="white"/>
</g>
<mask id="mask21_11_7" style="mask-type:luminance" maskUnits="userSpaceOnUse" x="127" y="103" width="321" height="230">
<path d="M352.658 255.758C318.445 231.492 282.317 192.45 257.89 129.789L127.753 103.762C127.753 103.762 177.693 149.109 230.128 164.492C230.128 164.492 255.157 251.104 324.343 299.801C353.082 320.029 389.44 333.715 434.789 331.934C440.623 320.82 445.126 308.618 447.895 295.066C447.895 295.066 402.291 290.961 352.658 255.758Z" fill="white"/>
</mask>
<g mask="url(#mask21_11_7)">
<path d="M447.894 103.762H127.752V333.714H447.894V103.762Z" fill="url(#paint6_linear_11_7)"/>
</g>
<path fill-rule="evenodd" clip-rule="evenodd" d="M352.658 255.758C318.445 231.492 282.317 192.45 257.89 129.789L127.753 103.762C127.753 103.762 195.62 121.971 248.055 137.355C248.055 137.355 273.084 223.967 342.27 272.663C369.47 291.808 403.496 305.09 445.508 304.948C446.406 301.735 447.205 298.442 447.895 295.066C447.895 295.066 402.291 290.961 352.658 255.758Z" fill="black"/>
<path fill-rule="evenodd" clip-rule="evenodd" d="M6.07324 150.025C6.07324 150.025 113.966 202.227 232.385 171.371C231.17 167.904 230.465 165.617 230.223 164.814C201.1 166.664 161.532 162.67 125.434 151.354L6.07324 150.025Z" fill="black"/>
<path fill-rule="evenodd" clip-rule="evenodd" d="M242.11 195.378C208.996 205.062 158.743 209.878 112.037 203.597L0 224.109C0 224.109 148.562 245.341 248.483 208.539C246.112 203.916 243.991 199.502 242.11 195.378Z" fill="black"/>
<path fill-rule="evenodd" clip-rule="evenodd" d="M30.175 304.779C30.175 304.779 166.347 294.663 262.619 233.241C260.442 229.822 258.387 226.437 256.45 223.11C228.815 237.533 187.255 250.845 144.484 256.353L30.175 304.779Z" fill="black"/>
<path fill-rule="evenodd" clip-rule="evenodd" d="M107.158 354.585C107.158 354.585 195.744 345.927 280.586 258.302C278.841 256.144 277.147 253.977 275.504 251.806C251.54 270.851 216.03 291.086 178.004 304.841L107.158 354.585Z" fill="black"/>
<path fill-rule="evenodd" clip-rule="evenodd" d="M196.854 366.417C196.854 366.417 260.86 335.748 305.304 284.551C302.247 281.789 299.299 278.961 296.456 276.084C280.727 292.771 259.891 310.441 236.892 325.26L196.854 366.417Z" fill="black"/>
<defs>
<linearGradient id="paint0_linear_11_7" x1="346.08" y1="278.987" x2="364.761" y2="136.167" gradientUnits="userSpaceOnUse">
<stop/>
<stop offset="1" stop-color="white"/>
</linearGradient>
<linearGradient id="paint1_linear_11_7" x1="216.151" y1="513.684" x2="260.827" y2="461.749" gradientUnits="userSpaceOnUse">
<stop stop-color="white"/>
<stop offset="1"/>
</linearGradient>
<linearGradient id="paint2_linear_11_7" x1="244.911" y1="520.103" x2="285.807" y2="463.128" gradientUnits="userSpaceOnUse">
<stop stop-color="white"/>
<stop offset="1"/>
</linearGradient>
<linearGradient id="paint3_linear_11_7" x1="271.847" y1="508.382" x2="308.771" y2="468.307" gradientUnits="userSpaceOnUse">
<stop stop-color="white"/>
<stop offset="1"/>
</linearGradient>
<linearGradient id="paint4_linear_11_7" x1="306.716" y1="496.836" x2="323.891" y2="455.885" gradientUnits="userSpaceOnUse">
<stop stop-color="white"/>
<stop offset="1"/>
</linearGradient>
<linearGradient id="paint5_linear_11_7" x1="329.993" y1="474.35" x2="322.953" y2="426.634" gradientUnits="userSpaceOnUse">
<stop stop-color="white"/>
<stop offset="1"/>
</linearGradient>
<linearGradient id="paint6_linear_11_7" x1="344.87" y1="303.395" x2="238.699" y2="145.838" gradientUnits="userSpaceOnUse">
<stop/>
<stop offset="1" stop-color="white"/>
</linearGradient>
</defs>
</svg>
